Coordinates
version=1
nRows=11
nColumns=63
inDegrees=yes

Units are S.I. units (second, meters, Newtons, ...)
If the header above contains a line with 'inDegrees', this indicates whether rotational values are in degrees (yes) or radians (no).

endheader
time	pelvis_tilt	pelvis_list	pelvis_rotation	pelvis_tx	pelvis_ty	pelvis_tz	hip_flexion_r	hip_adduction_r	hip_rotation_r	knee_angle_r	knee_angle_r_beta	ankle_angle_r	subtalar_angle_r	mtp_angle_r	hip_flexion_l	hip_adduction_l	hip_rotation_l	knee_angle_l	knee_angle_l_beta	ankle_angle_l	subtalar_angle_l	mtp_angle_l	L5_S1_Flex_Ext	L5_S1_Lat_Bending	L5_S1_axial_rotation	L4_L5_Flex_Ext	L4_L5_Lat_Bending	L4_L5_axial_rotation	L3_L4_Flex_Ext	L3_L4_Lat_Bending	L3_L4_axial_rotation	L2_L3_Flex_Ext	L2_L3_Lat_Bending	L2_L3_axial_rotation	L1_L2_Flex_Ext	L1_L2_Lat_Bending	L1_L2_axial_rotation	L1_T12_Flex_Ext	L1_T12_Lat_Bending	L1_T12_axial_rotation	Abs_r3	Abs_r2	Abs_r1	Abs_t1	Abs_t2	neck_flexion	neck_bending	neck_rotation	arm_flex_r	arm_add_r	arm_rot_r	elbow_flex_r	pro_sup_r	wrist_flex_r	wrist_dev_r	arm_flex_l	arm_add_l	arm_rot_l	elbow_flex_l	pro_sup_l	wrist_flex_l	wrist_dev_l
      0.00000000	      1.59855669	     -6.23805704	     88.66232623	     -0.00164004	      1.03815309	      0.49659205	      1.11602417	      1.60996947	      3.95873093	      1.58755907	      0.02770813	     16.87774667	      2.94954017	      0.00000000	      1.39618139	     -4.34271069	     15.98635884	      0.81120549	      0.01415821	     12.26992074	    -14.94208213	      0.00000000	      0.02298878	      0.31248723	      0.62660152	      0.04269246	      0.41560801	      0.66576412	      0.03776827	      0.75978145	      0.66576412	      0.02627388	      0.75978145	      0.54827633	      0.02134738	      0.63722395	      0.50911374	      0.01313579	      0.48404272	      0.46995114	      0.16420656	      3.53491802	      3.48496969	      0.00000000	      0.00000000	     26.55103488	      2.07873021	      4.37764891	      9.47215635	    -13.01921456	     54.49367595	     51.86315928	     87.36177995	      6.16317306	     11.01109184	     14.83485154	     -7.10688972	     54.46718104	     50.71960837	     66.77010665	      9.08404152	     10.89519255
      0.01694915	      1.60075303	     -6.32857534	     88.48743035	     -0.00099790	      1.03764149	      0.49705877	      1.07643264	      1.65397714	      5.71739991	      1.16293037	      0.02029696	     16.24876212	      0.89406237	      0.00000000	      1.60980262	     -4.36153367	     14.94911935	      0.72735677	      0.01269477	     13.89375947	    -13.96484695	      0.00000000	      0.03817736	      0.30831519	      0.70582376	      0.07089917	      0.41005921	      0.74993775	      0.06272158	      0.74963756	      0.74993775	      0.04363290	      0.74963756	      0.61759579	      0.03545149	      0.62871634	      0.57348181	      0.02181454	      0.47758023	      0.52936782	      0.27269705	      3.48772312	      3.92558001	      0.00000000	      0.00000000	     26.42506057	      1.84033083	      3.92627164	      8.19310425	    -12.31390638	     51.12312437	     51.34163343	     81.89227361	      7.61068566	     10.09126455	     15.26599443	     -7.10435218	     55.19597258	     50.91770788	     65.42264111	      6.06506813	      7.75649587
      0.03389831	      1.52289214	     -6.43598213	     88.32427835	     -0.00031276	      1.03735951	      0.49726261	      1.11657098	      1.60529016	      6.83181432	      0.92253259	      0.01610123	     15.90278252	     -0.32646594	      0.00000000	      1.77925526	     -4.30328811	     14.06589277	      0.68936284	      0.01203165	     14.80489028	    -13.08840069	      0.00000000	      0.05182368	      0.29060799	      0.78948505	      0.09624176	      0.38650863	      0.83882786	      0.08514113	      0.70658427	      0.83882786	      0.05922929	      0.70658427	      0.69079942	      0.04812347	      0.59260781	      0.64145660	      0.02961205	      0.45015178	      0.59211378	      0.37017138	      3.28741571	      4.39087898	      0.00000000	      0.00000000	     26.40095579	      1.71552992	      3.38020367	      6.61029241	    -12.20707712	     53.43934437	     54.94857714	      4.39555911	     -9.59468496	     14.10369728	     15.55700425	     -7.03323069	     55.52898906	     50.96107933	     65.29930445	      4.58342585	      6.22123256
      0.05084746	      1.53438598	     -6.47730406	     88.24606941	     -0.00018175	      1.03719264	      0.49743414	      1.12060798	      1.61197461	      6.98240277	      0.80030919	      0.01396803	     15.89345275	     -0.30508229	      0.00000000	      1.84712004	     -4.31124320	     13.54026012	      0.69191107	      0.01207613	     15.32940032	    -12.51435768	      0.00000000	      0.05434958	      0.29106055	      0.79146943	      0.10093260	      0.38711054	      0.84093627	      0.08929092	      0.70768463	      0.84093627	      0.06211613	      0.70768463	      0.69253575	      0.05046902	      0.59353068	      0.64306891	      0.03105535	      0.45085280	      0.59360207	      0.38821358	      3.29253521	      4.40191553	      0.00000000	      0.00000000	     26.34515780	      1.77477711	      3.47753088	      6.74988264	    -12.18123533	     53.58764201	     54.92333364	      4.10794768	     -9.55445595	     13.82078084	     15.48643102	     -6.89717256	     54.92137417	     51.04000639	     66.25228315	      4.21042148	      6.13149024
      0.06779661	      1.54330852	     -6.50607985	     88.30334295	     -0.00035778	      1.03719590	      0.49743685	      1.11182954	      1.59931608	      6.19538236	      0.73383761	      0.01280788	     16.16599564	      0.85487615	      0.00000000	      1.87341911	     -4.30446301	     13.27705397	      0.70528354	      0.01230952	     15.46332650	    -12.07202822	      0.00000000	      0.05234166	      0.29358929	      0.77680776	      0.09720369	      0.39047375	      0.82535824	      0.08599211	      0.71383300	      0.82535824	      0.05982128	      0.71383300	      0.67970679	      0.04860446	      0.59868728	      0.63115630	      0.02990802	      0.45476981	      0.58260582	      0.37387121	      3.32114076	      4.32037169	      0.00000000	      0.00000000	     26.35344414	      1.85362232	      3.64530481	      6.79064103	    -12.20093120	     53.59669392	     55.07251600	      3.69376518	    -10.41095642	     13.71523131	     15.48779177	     -6.75832755	     54.61060587	     50.99619370	     67.15514251	      4.48313326	      6.64228569
      0.08474576	      1.52525205	     -6.50961922	     88.36966633	     -0.00063149	      1.03731030	      0.49728804	      1.05555810	      1.56630985	      6.69163965	      0.65981707	      0.01151598	     16.08275358	      0.13030546	      0.00000000	      1.84728543	     -4.25985476	     13.46317723	      0.74029292	      0.01292055	     15.18927121	    -12.28636716	      0.00000000	      0.04629307	      0.29234798	      0.77689962	      0.08597085	      0.38882282	      0.82545585	      0.07605488	      0.71081489	      0.82545585	      0.05290835	      0.71081489	      0.67978717	      0.04298774	      0.59615601	      0.63123094	      0.02645186	      0.45284703	      0.58267472	      0.33066675	      3.30709886	      4.32088264	      0.00000000	      0.00000000	     26.39383946	      1.90611754	      3.73148071	      6.68871363	    -12.22142643	     53.33733132	     55.15323802	      3.39738525	    -11.06031316	     13.92100677	     15.50125717	     -6.61376679	     54.43043787	     50.94768459	     68.11708925	      5.06637495	      7.80464163
      0.10169492	      1.48950355	     -6.52080583	     88.35781824	     -0.00091476	      1.03750733	      0.49689002	      1.00105007	      1.51676869	      7.34075440	      0.61035985	      0.01065279	     16.06586426	     -0.74405210	      0.00000000	      1.79154027	     -4.19059118	     13.20648036	      0.77411554	      0.01351086	     15.01652640	    -12.00826286	      0.00000000	      0.04246477	      0.29055947	      0.77897633	      0.07886132	      0.38644410	      0.82766235	      0.06976536	      0.70646630	      0.82766235	      0.04853298	      0.70646630	      0.68160429	      0.03943278	      0.59250888	      0.63291827	      0.02426437	      0.45007662	      0.58423225	      0.30332158	      3.28686687	      4.33243264	      0.00000000	      0.00000000	     26.45197185	      1.95696138	      3.85681131	      6.38515381	    -12.13069828	     52.65272000	     55.32625288	      3.01756039	    -12.37053985	     14.51061638	     15.41200808	     -6.47918005	     54.14394082	     50.89801727	     69.06001524	      5.93318334	      8.99757430
      0.11864407	      1.45252150	     -6.49531164	     88.56330455	     -0.00153322	      1.03786556	      0.49644138	      0.90552110	      1.45511698	      6.79974048	      0.59717766	      0.01042272	     16.21500460	     -0.28658270	      0.00000000	      1.71869596	     -4.10320832	     14.37886515	      0.78773711	      0.01374861	     14.14379773	    -13.62195855	      0.00000000	      0.03614896	      0.28956888	      0.75683481	      0.06713224	      0.38512662	      0.80413698	      0.05938913	      0.70405779	      0.80413698	      0.04131465	      0.70405779	      0.66223046	      0.03356793	      0.59048887	      0.61492828	      0.02065552	      0.44854220	      0.56762610	      0.25820844	      3.27566114	      4.20928814	      0.00000000	      0.00000000	     26.45640612	      2.00003883	      3.98751075	      5.87568782	    -11.93970635	     51.48805010	     55.29737260	      2.88131602	    -13.01840978	     15.32500550	     15.61233785	     -6.44542830	     54.83507600	     50.75384634	     68.92792181	      6.16879077	      9.50589003
      0.13559322	      1.36204370	     -6.43750681	     88.79323452	     -0.00206041	      1.03831238	      0.49594522	      0.76742642	      1.34971345	      5.85422651	      0.58162009	      0.01015119	     16.49400834	      0.79748306	      0.00000000	      1.63485664	     -3.96496934	     14.71778717	      0.81009653	      0.01413885	     13.63341375	    -13.90816098	      0.00000000	      0.02283374	      0.27988429	      0.71706586	      0.04240454	      0.37224611	      0.76188248	      0.03751355	      0.68051067	      0.76188248	      0.02609668	      0.68051067	      0.62743263	      0.02120341	      0.57074005	      0.58261601	      0.01304720	      0.43354077	      0.53779939	      0.16309911	      3.16610711	      3.98810519	      0.00000000	      0.00000000	     26.46159212	      2.13234328	      4.15261823	      5.25080028	    -11.56897789	     50.08857064	     55.29261645	      2.61143851	    -13.81224630	     15.81450126	     15.67198459	     -6.50051428	     55.30281432	     50.63237519	     68.49271470	      6.42276274	      9.37678219
      0.15254237	      1.25527263	     -6.36840497	     88.97292323	     -0.00260128	      1.03880232	      0.49532958	      0.61825624	      1.22809499	      4.87275402	      0.59217084	      0.01033533	     16.72667656	      1.99574287	      0.00000000	      1.53616739	     -3.80239232	     14.95503416	      0.80826089	      0.01410681	     13.11452707	    -14.40021888	      0.00000000	      0.01385814	      0.26949646	      0.68921664	      0.02573595	      0.35843029	      0.73229268	      0.02276754	      0.65525368	      0.73229268	      0.01583847	      0.65525368	      0.60306456	      0.01286867	      0.54955717	      0.55998852	      0.00791854	      0.41745001	      0.51691248	      0.09898730	      3.04859781	      3.83321617	      0.00000000	      0.00000000	     26.44163822	      2.12547871	      4.15477528	      4.59224336	    -11.11496009	     48.58637678	     55.12325285	      2.49145786	    -14.19711364	     16.31102968	     15.76390454	     -6.56592162	     55.87882921	     50.47247059	     67.85938969	      6.40292002	      9.08231846
      0.16949153	      1.21340319	     -6.30367880	     89.43509930	     -0.00351838	      1.03925146	      0.49472838	      0.44480493	      1.17898911	      3.86236960	      0.60513466	      0.01056159	     16.75555884	      2.75436487	      0.00000000	      1.50970724	     -3.69819317	     15.45464180	      0.79557471	      0.01388540	     12.93165946	    -14.72737138	      0.00000000	      0.00818167	      0.26879086	      0.60608250	      0.01519418	      0.35749184	      0.64396266	      0.01344167	      0.65353809	      0.64396266	      0.00935083	      0.65353809	      0.53032219	      0.00759750	      0.54811832	      0.49244203	      0.00467501	      0.41635704	      0.45456188	      0.05844087	      3.04061595	      3.37084905	      0.00000000	      0.00000000	     26.39776569	      2.06669230	      4.25197543	      3.96614905	    -10.67705048	     47.18160947	     54.96034306	      2.45366008	    -14.43948776	     16.59266203	     15.95263484	     -6.67888252	     56.78230895	     50.22805511	     66.72473846	      6.23087810	      8.20877539
